<svg xmlns="http://www.w3.org/2000/svg" width="66" height="66" viewBox="0 0 66 66" fill="none">
  <g opacity="0.5">
    <g filter="url(#filter0_d_2020_24601)">
      <path d="M33 0C49.5685 0 63 13.4315 63 30C63 46.5685 49.5685 60 33 60C16.4315 60 3 46.5685 3 30C3 13.4315 16.4315 0 33 0ZM33.376 3C18.2572 3 6.00098 15.2562 6.00098 30.375C6.00107 45.4937 18.2572 57.75 33.376 57.75C48.4946 57.7498 60.7509 45.4936 60.751 30.375C60.751 15.2563 48.4946 3.00017 33.376 3Z" fill="url(#paint0_linear_2020_24601)"/>
    </g>
    <g filter="url(#filter1_d_2020_24601)">
      <path d="M33.5 39C38.1944 39 42 35.1944 42 30.5C42 25.8056 38.1944 22 33.5 22C28.8056 22 25 25.8056 25 30.5C25 35.1944 28.8056 39 33.5 39Z" fill="url(#paint1_linear_2020_24601)"/>
    </g>
  </g>
  <defs>
    <filter id="filter0_d_2020_24601" x="0" y="0" width="66" height="66" filterUnits="userSpaceOnUse" color-interpolation-filters="sRGB">
      <feFlood flood-opacity="0" result="BackgroundImageFix"/>
      <feColorMatrix in="SourceAlpha" type="matrix" values="0 0 0 0 0 0 0 0 0 0 0 0 0 0 0 0 0 0 127 0" result="hardAlpha"/>
      <feOffset dy="3"/>
      <feGaussianBlur stdDeviation="1.5"/>
      <feComposite in2="hardAlpha" operator="out"/>
      <feColorMatrix type="matrix" values="0 0 0 0 0 0 0 0 0 0 0 0 0 0 0 0 0 0 0.25 0"/>
      <feBlend mode="normal" in2="BackgroundImageFix" result="effect1_dropShadow_2020_24601"/>
      <feBlend mode="normal" in="SourceGraphic" in2="effect1_dropShadow_2020_24601" result="shape"/>
    </filter>
    <filter id="filter1_d_2020_24601" x="21" y="22" width="25" height="25" filterUnits="userSpaceOnUse" color-interpolation-filters="sRGB">
      <feFlood flood-opacity="0" result="BackgroundImageFix"/>
      <feColorMatrix in="SourceAlpha" type="matrix" values="0 0 0 0 0 0 0 0 0 0 0 0 0 0 0 0 0 0 127 0" result="hardAlpha"/>
      <feOffset dy="4"/>
      <feGaussianBlur stdDeviation="2"/>
      <feComposite in2="hardAlpha" operator="out"/>
      <feColorMatrix type="matrix" values="0 0 0 0 0 0 0 0 0 0 0 0 0 0 0 0 0 0 0.25 0"/>
      <feBlend mode="normal" in2="BackgroundImageFix" result="effect1_dropShadow_2020_24601"/>
      <feBlend mode="normal" in="SourceGraphic" in2="effect1_dropShadow_2020_24601" result="shape"/>
    </filter>
    <linearGradient id="paint1_linear_2020_24601" x1="33.5" y1="22" x2="33.5" y2="39" gradientUnits="userSpaceOnUse">
      <stop stop-color="white"/>
      <stop offset="0.823023" stop-color="#EEEFF4"/>
      <stop offset="1" stop-color="#DDDDDE"/>
    </linearGradient>
  </defs>
</svg>